<svg width="64" height="65" viewBox="0 0 64 65" fill="none" xmlns="http://www.w3.org/2000/svg">
<path d="M55.3253 47.3564C58.0406 42.872 59.5062 37.7425 59.5699 32.5004C59.5062 27.2584 58.0406 22.1289 55.3253 17.6444" stroke="#5129FF" stroke-width="4.576" stroke-linecap="round" stroke-linejoin="round"/>
<path d="M46.8566 26.1335C48.332 27.9175 49.0888 30.1879 48.9789 32.5004C49.0888 34.8129 48.332 37.0833 46.8566 38.8673" stroke="#5129FF" stroke-width="4.576" stroke-linecap="round" stroke-linejoin="round"/>
<path d="M15.0227 23.9863H8.65583C6.34395 23.9863 4.41125 25.9249 4.41125 28.2438V36.7587C4.41125 39.0777 6.34395 41.0162 8.65583 41.0162H15.0227L29.4967 55.1082C32.2357 57.0093 36.1714 55.0076 36.2455 51.6599V13.3426C36.3251 9.99262 32.6253 7.98783 29.8787 9.89402L15.0227 23.9863Z" fill="white"/>
<path d="M15.0227 23.9863H8.65583C6.34395 23.9863 4.41125 25.9249 4.41125 28.2438V36.7587C4.41125 39.0777 6.34395 41.0162 8.65583 41.0162H15.0227L29.4967 55.1082C32.2357 57.0093 36.1714 55.0076 36.2455 51.6599V13.3426C36.3251 9.99262 32.6253 7.98783 29.8787 9.89402L15.0227 23.9863Z" stroke="#5129FF" stroke-width="4.576" stroke-linecap="round" stroke-linejoin="round"/>
</svg>
