<svg width="356" height="218" viewBox="0 0 356 218" fill="none" xmlns="http://www.w3.org/2000/svg">
<path opacity="0.75" d="M0.0605469 54.0005C0.0605469 49.5822 3.64227 46.0005 8.06055 46.0005H34.2899C38.7081 46.0005 42.2899 49.5822 42.2899 54.0005V218H0.0605469V54.0005Z" fill="url(#paint0_linear_1571_9408)"/>
<path opacity="0.75" d="M52.2898 34.0005C52.2898 29.5822 55.8715 26.0005 60.2898 26.0005H86.5191C90.9374 26.0005 94.5191 29.5822 94.5191 34.0005V218H52.2898V34.0005Z" fill="url(#paint1_linear_1571_9408)"/>
<path opacity="0.75" d="M104.519 78.0005C104.519 73.5822 108.101 70.0005 112.519 70.0005H138.749C143.167 70.0005 146.749 73.5822 146.749 78.0005V218H104.519V78.0005Z" fill="url(#paint2_linear_1571_9408)"/>
<path opacity="0.75" d="M156.749 54.0005C156.749 49.5822 160.33 46.0005 164.749 46.0005H190.978C195.396 46.0005 198.978 49.5822 198.978 54.0005V218H156.749V54.0005Z" fill="url(#paint3_linear_1571_9408)"/>
<path opacity="0.75" d="M208.978 106C208.978 101.582 212.56 98.0005 216.978 98.0005H243.207C247.625 98.0005 251.207 101.582 251.207 106V218H208.978V106Z" fill="url(#paint4_linear_1571_9408)"/>
<path opacity="0.75" d="M261.207 78.0005C261.207 73.5822 264.789 70.0005 269.207 70.0005H295.436C299.855 70.0005 303.436 73.5822 303.436 78.0005V218H261.207V78.0005Z" fill="url(#paint5_linear_1571_9408)"/>
<path opacity="0.75" d="M313.437 8.00049C313.437 3.58221 317.018 0.000488281 321.437 0.000488281H347.666C352.084 0.000488281 355.666 3.58221 355.666 8.00049V218H313.437V8.00049Z" fill="url(#paint6_linear_1571_9408)"/>
<defs>
<linearGradient id="paint0_linear_1571_9408" x1="21.1752" y1="46.0005" x2="21.1752" y2="218" gradientUnits="userSpaceOnUse">
<stop offset="0.760417" stop-color="white"/>
<stop offset="1" stop-color="white" stop-opacity="0.25"/>
</linearGradient>
<linearGradient id="paint1_linear_1571_9408" x1="73.4045" y1="26.0005" x2="73.4045" y2="218" gradientUnits="userSpaceOnUse">
<stop offset="0.760417" stop-color="white"/>
<stop offset="1" stop-color="white" stop-opacity="0.25"/>
</linearGradient>
<linearGradient id="paint2_linear_1571_9408" x1="125.634" y1="70.0005" x2="125.634" y2="218" gradientUnits="userSpaceOnUse">
<stop offset="0.760417" stop-color="white"/>
<stop offset="1" stop-color="white" stop-opacity="0.25"/>
</linearGradient>
<linearGradient id="paint3_linear_1571_9408" x1="177.863" y1="46.0005" x2="177.863" y2="218" gradientUnits="userSpaceOnUse">
<stop offset="0.760417" stop-color="white"/>
<stop offset="1" stop-color="white" stop-opacity="0.25"/>
</linearGradient>
<linearGradient id="paint4_linear_1571_9408" x1="230.092" y1="98.0005" x2="230.092" y2="218" gradientUnits="userSpaceOnUse">
<stop offset="0.760417" stop-color="white"/>
<stop offset="1" stop-color="white" stop-opacity="0.25"/>
</linearGradient>
<linearGradient id="paint5_linear_1571_9408" x1="282.322" y1="70.0005" x2="282.322" y2="218" gradientUnits="userSpaceOnUse">
<stop offset="0.760417" stop-color="white"/>
<stop offset="1" stop-color="white" stop-opacity="0.25"/>
</linearGradient>
<linearGradient id="paint6_linear_1571_9408" x1="334.551" y1="0.000488281" x2="334.551" y2="218" gradientUnits="userSpaceOnUse">
<stop offset="0.760417" stop-color="white"/>
<stop offset="1" stop-color="white" stop-opacity="0.25"/>
</linearGradient>
</defs>
</svg>
