<svg width="22" height="22" viewBox="0 0 22 22" fill="none" xmlns="http://www.w3.org/2000/svg">
<path d="M3.14425 20.2861L18.8585 20.2861C19.6475 20.2861 20.2871 19.6465 20.2871 18.8576L20.2871 3.14328C20.2871 2.3543 19.6475 1.7147 18.8585 1.7147L3.14425 1.7147C2.35527 1.7147 1.71568 2.3543 1.71568 3.14328L1.71568 18.8576C1.71568 19.6465 2.35527 20.2861 3.14425 20.2861Z" stroke="#3207FF" stroke-width="2" stroke-linecap="round" stroke-linejoin="round"/>
<path d="M1.71484 16.7148H20.2863" stroke="#3207FF" stroke-width="2" stroke-linecap="round" stroke-linejoin="round"/>
<path d="M6.48633 16.715L13.9292 9.74357C14.0575 9.63667 14.2193 9.57812 14.3863 9.57812C14.5534 9.57812 14.7151 9.63667 14.8435 9.74357L20.2863 13.6436" stroke="#3207FF" stroke-width="2" stroke-linecap="round" stroke-linejoin="round"/>
<path d="M7.42997 9.57185C8.61343 9.57185 9.57282 8.61246 9.57282 7.42899C9.57282 6.24552 8.61343 5.28613 7.42997 5.28613C6.2465 5.28613 5.28711 6.24552 5.28711 7.42899C5.28711 8.61246 6.2465 9.57185 7.42997 9.57185Z" stroke="#3207FF" stroke-width="2" stroke-linecap="round" stroke-linejoin="round"/>
</svg>
