<svg width="40" height="40" viewBox="0 0 40 40" fill="none" xmlns="http://www.w3.org/2000/svg">
<g clip-path="url(#clip0_487_3456)">
<path d="M38.514 21.5145C38.232 25.0588 36.9384 28.4477 34.7871 31.2785C32.6357 34.1092 29.717 36.2629 26.3776 37.4837C23.0383 38.7045 19.4186 38.941 15.9488 38.1652C12.479 37.3894 9.30477 35.6339 6.80331 33.1071C4.30186 30.5804 2.57829 27.3887 1.83738 23.9113C1.09648 20.4338 1.36938 16.8168 2.62366 13.4898C3.87794 10.1629 6.06088 7.26596 8.91313 5.14316C11.7654 3.02036 15.1671 1.76094 18.714 1.51453" stroke="black" stroke-width="2.85714" stroke-linecap="round" stroke-linejoin="round"/>
<path d="M27.9712 23.1145C27.4552 24.4425 26.6164 25.6209 25.5306 26.5433C24.4447 27.4656 23.1461 28.1027 21.7521 28.397C20.3581 28.6913 18.9128 28.6334 17.5468 28.2287C16.1808 27.824 14.9372 27.0852 13.9285 26.0791C12.9198 25.073 12.1778 23.8313 11.7695 22.4664C11.3613 21.1014 11.2998 19.6562 11.5905 18.2615C11.8812 16.8668 12.5149 15.5665 13.4345 14.4783C14.354 13.39 15.5303 12.5482 16.8569 12.0288" stroke="black" stroke-width="2.85714" stroke-linecap="round" stroke-linejoin="round"/>
<path d="M20 20.0003L27.1429 12.8574" stroke="black" stroke-width="2.85714" stroke-linecap="round" stroke-linejoin="round"/>
<path d="M32.8577 14.286L27.1434 12.8574L25.7148 7.14312L31.4291 1.42883L32.8577 7.14312L38.572 8.57169L32.8577 14.286Z" stroke="black" stroke-width="2.85714" stroke-linecap="round" stroke-linejoin="round"/>
</g>
<defs>
<clipPath id="clip0_487_3456">
<rect width="40" height="40" fill="white" transform="translate(0 0.000244141)"/>
</clipPath>
</defs>
</svg>
