<svg width="40" height="40" viewBox="0 0 40 40" fill="none" xmlns="http://www.w3.org/2000/svg">
<path d="M19.9986 11.4289C22.3655 11.4289 24.2843 9.51007 24.2843 7.14314C24.2843 4.7762 22.3655 2.85742 19.9986 2.85742C17.6317 2.85742 15.7129 4.7762 15.7129 7.14314C15.7129 9.51007 17.6317 11.4289 19.9986 11.4289Z" stroke="black" stroke-width="2.85714" stroke-linecap="round" stroke-linejoin="round"/>
<path d="M5.71345 37.1431C8.08038 37.1431 9.99916 35.2243 9.99916 32.8574C9.99916 30.4904 8.08038 28.5717 5.71345 28.5717C3.34651 28.5717 1.42773 30.4904 1.42773 32.8574C1.42773 35.2243 3.34651 37.1431 5.71345 37.1431Z" stroke="black" stroke-width="2.85714" stroke-linecap="round" stroke-linejoin="round"/>
<path d="M19.9986 37.1431C22.3655 37.1431 24.2843 35.2243 24.2843 32.8574C24.2843 30.4904 22.3655 28.5717 19.9986 28.5717C17.6317 28.5717 15.7129 30.4904 15.7129 32.8574C15.7129 35.2243 17.6317 37.1431 19.9986 37.1431Z" stroke="black" stroke-width="2.85714" stroke-linecap="round" stroke-linejoin="round"/>
<path d="M34.2857 37.1431C36.6526 37.1431 38.5714 35.2243 38.5714 32.8574C38.5714 30.4904 36.6526 28.5717 34.2857 28.5717C31.9188 28.5717 30 30.4904 30 32.8574C30 35.2243 31.9188 37.1431 34.2857 37.1431Z" stroke="black" stroke-width="2.85714" stroke-linecap="round" stroke-linejoin="round"/>
<path d="M5.71289 28.5717V22.8574C5.71289 22.0996 6.01391 21.3729 6.54973 20.8371C7.08555 20.3013 7.81227 20.0002 8.57003 20.0002H31.4272C32.1849 20.0002 32.9117 20.3013 33.4475 20.8371C33.9833 21.3729 34.2843 22.0996 34.2843 22.8574V28.5717" stroke="black" stroke-width="2.85714" stroke-linecap="round" stroke-linejoin="round"/>
<path d="M20 11.4288V28.5717" stroke="black" stroke-width="2.85714" stroke-linecap="round" stroke-linejoin="round"/>
</svg>
