<svg width="40" height="40" viewBox="0 0 40 40" fill="none" xmlns="http://www.w3.org/2000/svg">
<g clip-path="url(#clip0_487_3442)">
<path d="M20 33.2662H38.5714" stroke="black" stroke-width="2.85714" stroke-linecap="round" stroke-linejoin="round"/>
<path d="M33.2656 27.9592L38.5716 33.2654L33.2656 38.5714" stroke="black" stroke-width="2.85714" stroke-linecap="round" stroke-linejoin="round"/>
<path d="M13.3687 9.38883C15.5668 9.38883 17.3487 7.60693 17.3487 5.40883C17.3487 3.21074 15.5668 1.42883 13.3687 1.42883C11.1706 1.42883 9.38867 3.21074 9.38867 5.40883C9.38867 7.60693 11.1706 9.38883 13.3687 9.38883Z" stroke="black" stroke-width="2.85714" stroke-linejoin="round"/>
<path d="M23.98 22.6546C26.1781 22.6546 27.96 20.8727 27.96 18.6746C27.96 16.4765 26.1781 14.6946 23.98 14.6946C21.7819 14.6946 20 16.4765 20 18.6746C20 20.8727 21.7819 22.6546 23.98 22.6546Z" stroke="black" stroke-width="2.85714" stroke-linejoin="round"/>
<path d="M16.0191 37.246C18.2172 37.246 19.9991 35.4641 19.9991 33.266C19.9991 31.0679 18.2172 29.286 16.0191 29.286C13.821 29.286 12.0391 31.0679 12.0391 33.266C12.0391 35.4641 13.821 37.246 16.0191 37.246Z" stroke="black" stroke-width="2.85714" stroke-linejoin="round"/>
<path d="M19.9993 18.6749H8.72368C4.69425 18.6749 1.42773 21.9414 1.42773 25.9709C1.42773 30.0003 4.69425 33.2668 8.72368 33.2668H12.04" stroke="black" stroke-width="2.85714" stroke-linecap="round" stroke-linejoin="round"/>
<path d="M27.9599 18.6744H31.9396C35.6027 18.6744 38.5721 15.7049 38.5721 12.0417C38.5721 8.3786 35.6027 5.40906 31.9396 5.40906H17.3477" stroke="black" stroke-width="2.85714" stroke-linecap="round" stroke-linejoin="round"/>
<path d="M9.38694 5.40906H1.42773" stroke="black" stroke-width="2.85714" stroke-linecap="round" stroke-linejoin="round"/>
</g>
<defs>
<clipPath id="clip0_487_3442">
<rect width="40" height="40" fill="white" transform="translate(0 0.000244141)"/>
</clipPath>
</defs>
</svg>
