<svg width="64" height="65" viewBox="0 0 64 65" fill="none" xmlns="http://www.w3.org/2000/svg">
<path d="M53.2217 17.6439H10.7759C8.43175 17.6439 6.53137 19.5443 6.53137 21.8885V53.7228C6.53137 56.0671 8.43175 57.9674 10.7759 57.9674H53.2217C55.5659 57.9674 57.4662 56.0671 57.4662 53.7228V21.8885C57.4662 19.5443 55.5659 17.6439 53.2217 17.6439Z" fill="#E5F2FD"/>
<path d="M44.7336 26.1329H19.2662C16.922 26.1329 15.0216 28.0333 15.0216 30.3775V45.2335C15.0216 47.5778 16.922 49.4781 19.2662 49.4781H44.7336C47.0779 49.4781 48.9782 47.5778 48.9782 45.2335V30.3775C48.9782 28.0333 47.0779 26.1329 44.7336 26.1329Z" fill="white"/>
<path d="M53.2217 17.6439H10.7759C8.43175 17.6439 6.53137 19.5443 6.53137 21.8885V53.7228C6.53137 56.0671 8.43175 57.9674 10.7759 57.9674H53.2217C55.5659 57.9674 57.4662 56.0671 57.4662 53.7228V21.8885C57.4662 19.5443 55.5659 17.6439 53.2217 17.6439Z" stroke="#5129FF" stroke-width="4.576" stroke-linecap="round" stroke-linejoin="round"/>
<path d="M44.7336 26.1329H19.2662C16.922 26.1329 15.0216 28.0333 15.0216 30.3775V45.2335C15.0216 47.5778 16.922 49.4781 19.2662 49.4781H44.7336C47.0779 49.4781 48.9782 47.5778 48.9782 45.2335V30.3775C48.9782 28.0333 47.0779 26.1329 44.7336 26.1329Z" stroke="#5129FF" stroke-width="4.576" stroke-linecap="round" stroke-linejoin="round"/>
<path d="M23.509 7.03261L31.9982 17.644L40.4873 7.03261" stroke="#5129FF" stroke-width="4.576" stroke-linecap="round" stroke-linejoin="round"/>
</svg>
