<svg width="64" height="65" viewBox="0 0 64 65" fill="none" xmlns="http://www.w3.org/2000/svg">
<path d="M33.0993 58.5539L22.0294 25.3736C21.4432 23.6164 23.1152 21.9443 24.8725 22.5306L58.0528 33.6004C60.1203 34.2902 60.094 37.2237 58.0142 37.8764L43.4252 42.4551C42.7236 42.6753 42.1741 43.2247 41.9539 43.9264L37.3753 58.5153C36.7226 60.5951 33.7891 60.6214 33.0993 58.5539Z" fill="white"/>
<path d="M33.0993 58.5539L22.0294 25.3736C21.4432 23.6164 23.1152 21.9443 24.8725 22.5306L58.0528 33.6004C60.1203 34.2902 60.094 37.2237 58.0142 37.8764L43.4252 42.4551C42.7236 42.6753 42.1741 43.2247 41.9539 43.9264L37.3753 58.5153C36.7226 60.5951 33.7891 60.6214 33.0993 58.5539Z" stroke="#5129FF" stroke-width="4.576" stroke-linecap="round" stroke-linejoin="round"/>
<path d="M42.5566 43.0032L58.1399 58.5863" stroke="#5129FF" stroke-width="4.576" stroke-linecap="round" stroke-linejoin="round"/>
<path d="M4.41003 18.1068L11.929 20.1214" stroke="#5129FF" stroke-width="4.576" stroke-linecap="round" stroke-linejoin="round"/>
<path d="M7.60352 36.1969L13.1077 30.6926" stroke="#5129FF" stroke-width="4.576" stroke-linecap="round" stroke-linejoin="round"/>
<path d="M17.6064 4.91034L19.6211 12.4293" stroke="#5129FF" stroke-width="4.576" stroke-linecap="round" stroke-linejoin="round"/>
<path d="M35.6966 8.1037L30.1924 13.6079" stroke="#5129FF" stroke-width="4.576" stroke-linecap="round" stroke-linejoin="round"/>
</svg>
