<svg width="64" height="65" viewBox="0 0 64 65" fill="none" xmlns="http://www.w3.org/2000/svg">
<path d="M8.65527 34.6222V9.15473C8.65527 6.81051 10.5556 4.91016 12.8998 4.91016H51.101C53.4453 4.91016 55.3456 6.81051 55.3456 9.15473V34.6222C55.3456 36.9663 53.4453 38.8667 51.101 38.8667H12.8998C10.5557 38.8667 8.65527 36.9663 8.65527 34.6222Z" fill="white"/>
<path d="M8.65527 34.6222V9.15473C8.65527 6.81051 10.5556 4.91016 12.8998 4.91016H51.101C53.4453 4.91016 55.3456 6.81051 55.3456 9.15473V34.6222C55.3456 36.9663 53.4453 38.8667 51.101 38.8667H12.8998C10.5557 38.8667 8.65527 36.9663 8.65527 34.6222Z" stroke="#5129FF" stroke-width="4.576" stroke-linecap="round" stroke-linejoin="round"/>
<path d="M8.65527 11.2771L32.0004 24.0108L55.3456 11.2771" stroke="#5129FF" stroke-width="4.576" stroke-linecap="round" stroke-linejoin="round"/>
<path d="M32.0001 49.4782V60.0896" stroke="#5129FF" stroke-width="4.576" stroke-linecap="round" stroke-linejoin="round"/>
<path d="M17.1455 47.356V55.8451" stroke="#5129FF" stroke-width="4.576" stroke-linecap="round" stroke-linejoin="round"/>
<path d="M46.8573 47.356V55.8452" stroke="#5129FF" stroke-width="4.576" stroke-linecap="round" stroke-linejoin="round"/>
</svg>
