<svg width="40" height="40" viewBox="0 0 40 40" fill="none" xmlns="http://www.w3.org/2000/svg">
<g clip-path="url(#clip0_1114_7199)">
<path d="M34.9017 4.63867C36.1886 5.66785 37.1743 7.0249 37.755 8.567" stroke="black" stroke-width="3.33333" stroke-linecap="round" stroke-linejoin="round"/>
<path d="M37.6984 15.1787C37.0907 16.711 36.0807 18.0509 34.775 19.057" stroke="black" stroke-width="3.33333" stroke-linecap="round" stroke-linejoin="round"/>
<path d="M5.09833 37.0289C3.81142 35.9997 2.82573 34.6427 2.245 33.1006" stroke="black" stroke-width="3.33333" stroke-linecap="round" stroke-linejoin="round"/>
<path d="M2.3017 26.4887C2.90936 24.9564 3.91931 23.6165 5.22503 22.6104" stroke="black" stroke-width="3.33333" stroke-linecap="round" stroke-linejoin="round"/>
<path d="M26.6667 2.50049H29.1667" stroke="black" stroke-width="3.33333" stroke-linecap="round" stroke-linejoin="round"/>
<path d="M12.5 39.167H15" stroke="black" stroke-width="3.33333" stroke-linecap="round" stroke-linejoin="round"/>
<path d="M23.3333 20.834H28.3333" stroke="black" stroke-width="3.33333" stroke-linecap="round" stroke-linejoin="round"/>
<path d="M11.6667 20.834H16.6667" stroke="black" stroke-width="3.33333" stroke-linecap="round" stroke-linejoin="round"/>
<path d="M20 10.0005V39.1672" stroke="black" stroke-width="3.33333" stroke-linecap="round" stroke-linejoin="round"/>
<path d="M15 15.0005L20 10.0005L25 15.0005" stroke="black" stroke-width="3.33333" stroke-linecap="round" stroke-linejoin="round"/>
<path d="M17.5 3.33398C17.5 3.99703 17.7634 4.63291 18.2322 5.10175C18.7011 5.57059 19.337 5.83398 20 5.83398C20.663 5.83398 21.2989 5.57059 21.7678 5.10175C22.2366 4.63291 22.5 3.99703 22.5 3.33398C22.5 2.67094 22.2366 2.03506 21.7678 1.56622C21.2989 1.09738 20.663 0.833984 20 0.833984C19.337 0.833984 18.7011 1.09738 18.2322 1.56622C17.7634 2.03506 17.5 2.67094 17.5 3.33398V3.33398Z" stroke="black" stroke-width="3.33333" stroke-linecap="round" stroke-linejoin="round"/>
</g>
<defs>
<clipPath id="clip0_1114_7199">
<rect width="40" height="40" fill="white" transform="translate(0 0.000488281)"/>
</clipPath>
</defs>
</svg>
