<svg width="40" height="40" viewBox="0 0 40 40" fill="none" xmlns="http://www.w3.org/2000/svg">
<g clip-path="url(#clip0_720_7225)">
<path d="M6.66667 23.334C6.9963 23.334 7.31853 23.4317 7.59262 23.6149C7.8667 23.798 8.08032 24.0583 8.20647 24.3628C8.33261 24.6674 8.36562 25.0025 8.30131 25.3258C8.237 25.6491 8.07826 25.9461 7.84518 26.1792C7.61209 26.4122 7.31512 26.571 6.99182 26.6353C6.66852 26.6996 6.3334 26.6666 6.02886 26.5405C5.72432 26.4143 5.46402 26.2007 5.28088 25.9266C5.09775 25.6525 5 25.3303 5 25.0007C5 24.5586 5.17559 24.1347 5.48816 23.8221C5.80072 23.5096 6.22464 23.334 6.66667 23.334" stroke="black" stroke-width="3.33333" stroke-linecap="round" stroke-linejoin="round"/>
<path d="M23.3333 19.167H3.33331C1.9526 19.167 0.833313 20.2863 0.833313 21.667V36.667C0.833313 38.0477 1.9526 39.167 3.33331 39.167H23.3333C24.714 39.167 25.8333 38.0477 25.8333 36.667V21.667C25.8333 20.2863 24.714 19.167 23.3333 19.167Z" stroke="black" stroke-width="3.33333" stroke-linecap="round" stroke-linejoin="round"/>
<path d="M5.83331 3.33398L8.33331 5.83398L5.83331 8.33398" stroke="black" stroke-width="3.33333" stroke-linecap="round" stroke-linejoin="round"/>
<path d="M8.33331 5.83398H3.33331C2.67027 5.83398 2.03439 6.09738 1.56555 6.56622C1.09671 7.03506 0.833313 7.67094 0.833313 8.33398V11.6673" stroke="black" stroke-width="3.33333" stroke-linecap="round" stroke-linejoin="round"/>
<path d="M33.3333 36.667L30.8333 34.167L33.3333 31.667" stroke="black" stroke-width="3.33333" stroke-linecap="round" stroke-linejoin="round"/>
<path d="M30.8333 34.1673H35.8333C36.4964 34.1673 37.1322 33.9039 37.6011 33.4351C38.0699 32.9662 38.3333 32.3304 38.3333 31.6673V28.334" stroke="black" stroke-width="3.33333" stroke-linecap="round" stroke-linejoin="round"/>
<path d="M25.1667 38.3622L19.43 27.9689C19.271 27.6755 19.0388 27.4282 18.7559 27.2511C18.473 27.074 18.1491 26.9732 17.8157 26.9584C17.4823 26.9437 17.1507 27.0155 16.8533 27.1668C16.5558 27.3182 16.3026 27.544 16.1183 27.8222L11.4183 34.8939L8.52667 32.3522C8.3244 32.1746 8.08734 32.0411 7.83059 31.9602C7.57385 31.8794 7.30306 31.8529 7.03552 31.8825C6.76798 31.9122 6.50955 31.9973 6.27673 32.1324C6.04391 32.2675 5.84181 32.4496 5.68333 32.6672L1.5 38.3622" stroke="black" stroke-width="3.33333" stroke-linecap="round" stroke-linejoin="round"/>
<path d="M30.5984 20.834H36.6667C37.3297 20.834 37.9656 20.5706 38.4345 20.1018C38.9033 19.6329 39.1667 18.997 39.1667 18.334V3.33398C39.1667 2.67094 38.9033 2.03506 38.4345 1.56622C37.9656 1.09738 37.3297 0.833984 36.6667 0.833984H16.6667C16.0036 0.833984 15.3678 1.09738 14.8989 1.56622C14.4301 2.03506 14.1667 2.67094 14.1667 3.33398V14.334" stroke="black" stroke-width="3.33333" stroke-linecap="round" stroke-linejoin="round"/>
<path d="M20 5.00049C20.3296 5.00049 20.6518 5.09824 20.9259 5.28137C21.2 5.46451 21.4136 5.72481 21.5398 6.02935C21.6659 6.33389 21.6989 6.669 21.6346 6.99231C21.5703 7.31561 21.4116 7.61258 21.1785 7.84567C20.9454 8.07875 20.6484 8.23749 20.3251 8.3018C20.0018 8.36611 19.6667 8.3331 19.3622 8.20695C19.0576 8.08081 18.7973 7.86719 18.6142 7.5931C18.4311 7.31902 18.3333 6.99679 18.3333 6.66715C18.3333 6.22513 18.5089 5.8012 18.8215 5.48864C19.134 5.17608 19.558 5.00049 20 5.00049" stroke="black" stroke-width="3.33333" stroke-linecap="round" stroke-linejoin="round"/>
<path d="M38.5 20.0287L32.765 9.63539C32.606 9.34195 32.3738 9.09467 32.0909 8.9176C31.808 8.74053 31.4841 8.63971 31.1507 8.62494C30.8173 8.61017 30.4857 8.68197 30.1883 8.83334C29.8908 8.9847 29.6376 9.21049 29.4533 9.48872L24.7533 16.5604L21.86 14.0187C21.6577 13.8411 21.4207 13.7076 21.1639 13.6267C20.9072 13.5459 20.6364 13.5194 20.3688 13.5491C20.1013 13.5787 19.8429 13.6638 19.6101 13.7989C19.3772 13.934 19.1751 14.1161 19.0167 14.3337L18.495 15.0437" stroke="black" stroke-width="3.33333" stroke-linecap="round" stroke-linejoin="round"/>
</g>
<defs>
<clipPath id="clip0_720_7225">
<rect width="40" height="40" fill="white" transform="translate(0 0.000488281)"/>
</clipPath>
</defs>
</svg>
