<svg width="22" height="22" viewBox="0 0 22 22" fill="none" xmlns="http://www.w3.org/2000/svg">
<path d="M7.42843 11.701H5.99986C5.21088 11.701 4.57129 12.3406 4.57129 13.1296V18.8439C4.57129 19.6329 5.21088 20.2725 5.99986 20.2725H7.42843C8.21741 20.2725 8.857 19.6329 8.857 18.8439V13.1296C8.857 12.3406 8.21741 11.701 7.42843 11.701Z" stroke="#3207FF" stroke-width="2" stroke-linecap="round" stroke-linejoin="round"/>
<path d="M15.9997 11.701H14.5711C13.7822 11.701 13.1426 12.3406 13.1426 13.1296V18.8439C13.1426 19.6329 13.7822 20.2725 14.5711 20.2725H15.9997C16.7887 20.2725 17.4283 19.6329 17.4283 18.8439V13.1296C17.4283 12.3406 16.7887 11.701 15.9997 11.701Z" stroke="#3207FF" stroke-width="2" stroke-linecap="round" stroke-linejoin="round"/>
<path d="M1.71387 14.5582V10.9868C1.71387 8.52404 2.69218 6.16218 4.43359 4.42077C6.175 2.67936 8.53686 1.70105 10.9996 1.70105C13.4623 1.70105 15.8242 2.67936 17.5656 4.42077C19.307 6.16218 20.2853 8.52404 20.2853 10.9868V14.5582" stroke="#3207FF" stroke-width="2" stroke-linecap="round" stroke-linejoin="round"/>
</svg>
