<svg width="28" height="29" viewBox="0 0 28 29" fill="none" xmlns="http://www.w3.org/2000/svg">
<path fill-rule="evenodd" clip-rule="evenodd" d="M24.2137 13.4292C23.7082 13.3287 23.1749 13.291 22.62 13.3298C21.7075 13.3936 20.8401 13.6574 20.0354 14.0814C19.2309 13.6574 18.3634 13.3936 17.4509 13.3298C15.5097 13.1941 13.8345 13.9941 12.6862 15.1467C11.6475 16.1892 10.9128 17.6989 10.7716 19.3099H3.78669C3.29417 19.3099 2.82185 19.1143 2.47359 18.766C2.12534 18.4178 1.92969 17.9454 1.92969 17.4529V4.45392C1.92969 3.96141 2.12534 3.48908 2.47359 3.14083C2.82185 2.79257 3.29417 2.59692 3.78669 2.59692H22.3567C22.8492 2.59692 23.3216 2.79257 23.6698 3.14083C24.018 3.48908 24.2137 3.96141 24.2137 4.45392V13.4292Z" fill="#F5EDFD"/>
<path d="M1.92969 5.38232L13.0717 12.8103L24.2137 5.38232" stroke="#3A186A" stroke-width="2.002" stroke-linecap="round" stroke-linejoin="round"/>
<path d="M9.35769 19.3099H3.78669C2.76109 19.3099 1.92969 18.4785 1.92969 17.4529V4.45392C1.92969 3.42833 2.76109 2.59692 3.78669 2.59692H22.3567C23.3823 2.59692 24.2137 3.42833 24.2137 4.45392V11.8819" stroke="#3A186A" stroke-width="2.002" stroke-linecap="round" stroke-linejoin="round"/>
<path d="M20.0353 26.7379L14.95 22.0255C12.1023 19.2456 16.2044 13.8552 20.0353 18.1946C23.8661 13.8552 27.9682 19.2456 25.1205 22.0255L20.0353 26.7379Z" fill="white"/>
<path d="M20.0353 26.7379L14.95 22.0255C12.1023 19.2456 16.2044 13.8552 20.0353 18.1946C23.8661 13.8552 27.9682 19.2456 25.1205 22.0255L20.0353 26.7379Z" stroke="#3A186A" stroke-width="2.002" stroke-linecap="round" stroke-linejoin="round"/>
</svg>
