<svg width="28" height="27" viewBox="0 0 28 27" fill="none" xmlns="http://www.w3.org/2000/svg">
<path fill-rule="evenodd" clip-rule="evenodd" d="M24.2137 12.4287C23.7082 12.3282 23.1749 12.2905 22.62 12.3293C21.7075 12.3931 20.8401 12.6569 20.0354 13.0809C19.2309 12.6569 18.3634 12.3931 17.4509 12.3293C15.5097 12.1936 13.8345 12.9936 12.6862 14.1462C11.6475 15.1887 10.9128 16.6984 10.7716 18.3094H3.78669C3.29417 18.3094 2.82185 18.1138 2.47359 17.7655C2.12534 17.4173 1.92969 16.9449 1.92969 16.4524V3.45344C1.92969 2.96092 2.12534 2.48859 2.47359 2.14034C2.82185 1.79208 3.29417 1.59644 3.78669 1.59644H22.3567C22.8492 1.59644 23.3216 1.79208 23.6698 2.14034C24.018 2.48859 24.2137 2.96092 24.2137 3.45344V12.4287Z" fill="#E5F2FD"/>
<path d="M1.92969 4.38184L13.0717 11.8098L24.2137 4.38184" stroke="#5129FF" stroke-width="2.002" stroke-linecap="round" stroke-linejoin="round"/>
<path d="M9.35769 18.3094H3.78669C2.76109 18.3094 1.92969 17.478 1.92969 16.4524V3.45344C1.92969 2.42784 2.76109 1.59644 3.78669 1.59644H22.3567C23.3823 1.59644 24.2137 2.42784 24.2137 3.45344V10.8814" stroke="#5129FF" stroke-width="2.002" stroke-linecap="round" stroke-linejoin="round"/>
<path d="M20.0353 25.7374L14.95 21.025C12.1023 18.2451 16.2044 12.8547 20.0353 17.1941C23.8661 12.8547 27.9682 18.2451 25.1205 21.025L20.0353 25.7374Z" fill="white"/>
<path d="M20.0353 25.7374L14.95 21.025C12.1023 18.2451 16.2044 12.8547 20.0353 17.1941C23.8661 12.8547 27.9682 18.2451 25.1205 21.025L20.0353 25.7374Z" stroke="#5129FF" stroke-width="2.002" stroke-linecap="round" stroke-linejoin="round"/>
</svg>
