<svg width="18" height="18" viewBox="0 0 18 18" fill="none" xmlns="http://www.w3.org/2000/svg">
<path d="M9 4.6748C11.4609 4.6748 13.4922 6.70605 13.4922 9.16699C13.4922 11.667 11.4609 13.6592 9 13.6592C6.5 13.6592 4.50781 11.667 4.50781 9.16699C4.50781 6.70605 6.5 4.6748 9 4.6748ZM9 12.0967C10.6016 12.0967 11.8906 10.8076 11.8906 9.16699C11.8906 7.56543 10.6016 6.27637 9 6.27637C7.35938 6.27637 6.07031 7.56543 6.07031 9.16699C6.07031 10.8076 7.39844 12.0967 9 12.0967ZM14.7031 4.51855C14.7031 3.93262 14.2344 3.46387 13.6484 3.46387C13.0625 3.46387 12.5938 3.93262 12.5938 4.51855C12.5938 5.10449 13.0625 5.57324 13.6484 5.57324C14.2344 5.57324 14.7031 5.10449 14.7031 4.51855ZM17.6719 5.57324C17.75 7.01855 17.75 11.3545 17.6719 12.7998C17.5938 14.2061 17.2812 15.417 16.2656 16.4717C15.25 17.4873 14 17.7998 12.5938 17.8779C11.1484 17.9561 6.8125 17.9561 5.36719 17.8779C3.96094 17.7998 2.75 17.4873 1.69531 16.4717C0.679688 15.417 0.367188 14.2061 0.289062 12.7998C0.210938 11.3545 0.210938 7.01855 0.289062 5.57324C0.367188 4.16699 0.679688 2.91699 1.69531 1.90137C2.75 0.885742 3.96094 0.573242 5.36719 0.495117C6.8125 0.416992 11.1484 0.416992 12.5938 0.495117C14 0.573242 15.25 0.885742 16.2656 1.90137C17.2812 2.91699 17.5938 4.16699 17.6719 5.57324ZM15.7969 14.3232C16.2656 13.1904 16.1484 10.4561 16.1484 9.16699C16.1484 7.91699 16.2656 5.18262 15.7969 4.01074C15.4844 3.26855 14.8984 2.64355 14.1562 2.37012C12.9844 1.90137 10.25 2.01855 9 2.01855C7.71094 2.01855 4.97656 1.90137 3.84375 2.37012C3.0625 2.68262 2.47656 3.26855 2.16406 4.01074C1.69531 5.18262 1.8125 7.91699 1.8125 9.16699C1.8125 10.4561 1.69531 13.1904 2.16406 14.3232C2.47656 15.1045 3.0625 15.6904 3.84375 16.0029C4.97656 16.4717 7.71094 16.3545 9 16.3545C10.25 16.3545 12.9844 16.4717 14.1562 16.0029C14.8984 15.6904 15.5234 15.1045 15.7969 14.3232Z" fill="#3A186A"/>
</svg>
