<svg xmlns="http://www.w3.org/2000/svg" fill="none" viewBox="-1.07 -1.07 30 30" id="Content-Statistic--Streamline-Flex" height="30" width="30">
  <desc>
    Content Statistic Streamline Icon: https://streamlinehq.com
  </desc>
  <g id="content-statistic--product-data-analysis-analytics-graph-line-business-board-chart">
    <path id="Intersect" stroke="#3a186a" stroke-linecap="round" stroke-linejoin="round" d="M1.9101353300000001 20.434314999999998C2.21686 23.301308 4.522673 25.607121 7.3881934000000005 25.926516 9.5165979 26.163724000000002 11.7019363 26.3675 13.93 26.3675s4.4134021 -0.203776 6.541727 -0.440984c2.8655999999999997 -0.319395 5.171413 -2.6252079999999998 5.478072 -5.492201 0.226462 -2.1163252 0.417701 -4.289146499999999 0.417701 -6.504315 0 -2.2151883999999997 -0.19123900000000002 -4.387989800000001 -0.417701 -6.5043747000000005 -0.30665899999999996 -2.8668934999999998 -2.612472 -5.1727264 -5.478072 -5.49212339C18.343402100000002 1.69626008 16.158063700000003 1.4925 13.93 1.4925S9.5165979 1.69626008 7.3881934000000005 1.93350191C4.522673 2.2528989 2.21686 4.5587318 1.9101353300000001 7.4256253 1.68370517 9.5420102 1.4925 11.7148116 1.4925 13.93c0 2.2151685000000003 0.19120716000000001 4.387989800000001 0.41763532999999997 6.504315Z" stroke-width="2.14"></path>
    <path id="Vector" stroke="#3a186a" stroke-linecap="round" stroke-linejoin="round" d="M7.9716614 7.1668656h3.4592169999999998" stroke-width="2.14"></path>
    <path id="Vector_2" stroke="#3a186a" stroke-linecap="round" stroke-linejoin="round" d="M7.9716614 12.4821954h5.9581595" stroke-width="2.14"></path>
    <path id="Vector_3" stroke="#3a186a" stroke-linecap="round" stroke-linejoin="round" d="M20.832315 15.0829065s-1.0740825999999999 4.3720499 -3.3189021000000003 4.8505255c-2.0052633 0.427452 -2.7318919000000004 -2.8028155 -4.7195835 -2.2999226 -1.8492473 0.467849 -3.0682815 3.8005816 -3.0682815 3.8005816" stroke-width="2.14"></path>
  </g>
</svg>