<svg width="64" height="64" viewBox="0 0 64 64" fill="none" xmlns="http://www.w3.org/2000/svg">
<path d="M48.9778 32.0082C53.963 29.9293 57.4669 25.0091 57.4669 19.2706C57.4669 13.532 53.963 8.61187 48.9778 6.53296V16.0872C48.9778 18.4313 47.0775 20.3317 44.7332 20.3317H42.6109C40.2667 20.3317 38.3663 18.4313 38.3663 16.0872V6.53296C33.3812 8.61187 29.8772 13.532 29.8772 19.2706C29.8772 25.0091 33.3812 29.9293 38.3663 32.0082V52.1659C38.3663 55.0964 40.7418 57.4716 43.6721 57.4716C46.6025 57.4716 48.9778 55.0964 48.9778 52.1659V32.0082Z" fill="#E5F2FD"/>
<path d="M19.2659 34.1228H10.7768C8.43261 34.1228 6.53223 36.0232 6.53223 38.3674V48.9788C6.53223 53.6674 10.3329 57.4679 15.0214 57.4679C19.7098 57.4679 23.5105 53.6674 23.5105 48.9788V38.3674C23.5105 36.0232 21.6101 34.1228 19.2659 34.1228Z" fill="#E5F2FD"/>
<path d="M17.1444 21.389H12.8998L8.65527 17.1444L10.7776 6.53296H19.2667L21.389 17.1444L17.1444 21.389Z" fill="white"/>
<path d="M48.9778 32.0082C53.963 29.9293 57.4669 25.0091 57.4669 19.2706C57.4669 13.532 53.963 8.61187 48.9778 6.53296V16.0872C48.9778 18.4313 47.0775 20.3317 44.7332 20.3317H42.6109C40.2667 20.3317 38.3663 18.4313 38.3663 16.0872V6.53296C33.3812 8.61187 29.8772 13.532 29.8772 19.2706C29.8772 25.0091 33.3812 29.9293 38.3663 32.0082V52.1659C38.3663 55.0964 40.7418 57.4716 43.6721 57.4716C46.6025 57.4716 48.9778 55.0964 48.9778 52.1659V32.0082Z" stroke="#5129FF" stroke-width="4.576" stroke-linecap="round" stroke-linejoin="round"/>
<path d="M19.2659 34.1228H10.7768C8.43261 34.1228 6.53223 36.0232 6.53223 38.3674V48.9788C6.53223 53.6674 10.3329 57.4679 15.0214 57.4679C19.7098 57.4679 23.5105 53.6674 23.5105 48.9788V38.3674C23.5105 36.0232 21.6101 34.1228 19.2659 34.1228Z" stroke="#5129FF" stroke-width="4.576" stroke-linecap="round" stroke-linejoin="round"/>
<path d="M15.0225 34.1224V21.3887" stroke="#5129FF" stroke-width="4.576" stroke-linecap="round" stroke-linejoin="round"/>
<path d="M17.1444 21.389H12.8998L8.65527 17.1444L10.7776 6.53296H19.2667L21.389 17.1444L17.1444 21.389Z" stroke="#5129FF" stroke-width="4.576" stroke-linecap="round" stroke-linejoin="round"/>
</svg>
