<svg width="211" height="307" viewBox="0 0 211 307" fill="none" xmlns="http://www.w3.org/2000/svg">
<path d="M210.299 136.088C210.299 132.297 207.226 129.224 203.435 129.224C199.644 129.224 196.571 132.297 196.571 136.088C196.571 139.879 199.644 142.952 203.435 142.952C207.226 142.952 210.299 139.879 210.299 136.088ZM67.8785 299.099L80.7478 306.529V291.669L67.8785 299.099ZM203.435 134.801H157.66V137.375H203.435V134.801ZM135.782 156.679V278.508H138.356V156.679H135.782ZM116.478 297.812H79.4609V300.386H116.478V297.812ZM135.782 278.508C135.782 289.17 127.139 297.812 116.478 297.812V300.386C128.561 300.386 138.356 290.591 138.356 278.508H135.782ZM157.66 134.801C145.577 134.801 135.782 144.596 135.782 156.679H138.356C138.356 146.018 146.998 137.375 157.66 137.375V134.801Z" fill="black"/>
<path d="M210.299 136.088C210.299 139.879 207.226 142.952 203.435 142.952C199.644 142.952 196.571 139.879 196.571 136.088C196.571 132.297 199.644 129.224 203.435 129.224C207.226 129.224 210.299 132.297 210.299 136.088ZM103.055 0.531494L110.485 13.4008H95.6245L103.055 0.531494ZM203.435 137.375H123.645V134.801H203.435V137.375ZM101.768 115.497V12.1139H104.341V115.497H101.768ZM123.645 137.375C111.563 137.375 101.768 127.58 101.768 115.497H104.341C104.341 126.158 112.984 134.801 123.645 134.801V137.375Z" fill="black"/>
<path d="M210.626 135.724C210.626 131.933 207.553 128.86 203.763 128.86C199.972 128.86 196.899 131.933 196.899 135.724C196.899 139.515 199.972 142.588 203.763 142.588C207.553 142.588 210.626 139.515 210.626 135.724ZM0.205811 135.724L13.0751 143.154L13.0751 128.294L0.205811 135.724ZM203.763 134.437L101.984 134.437L101.984 137.011L203.763 137.011L203.763 134.437ZM101.984 134.437L11.7882 134.437L11.7882 137.011L101.984 137.011L101.984 134.437Z" fill="black"/>
</svg>
