<svg width="18" height="19" viewBox="0 0 18 19" fill="none" xmlns="http://www.w3.org/2000/svg">
<path d="M4.15625 18.667H0.523438V6.9873H4.15625V18.667ZM2.32031 5.4248C1.1875 5.4248 0.25 4.44824 0.25 3.27637C0.25 1.6748 1.96875 0.65918 3.375 1.47949C4.03906 1.83105 4.42969 2.53418 4.42969 3.27637C4.42969 4.44824 3.49219 5.4248 2.32031 5.4248ZM17.7109 18.667H14.1172V13.0029C14.1172 11.6357 14.0781 9.91699 12.2031 9.91699C10.3281 9.91699 10.0547 11.3623 10.0547 12.8857V18.667H6.42188V6.9873H9.89844V8.58887H9.9375C10.4453 7.69043 11.6172 6.71387 13.375 6.71387C17.0469 6.71387 17.75 9.13574 17.75 12.2607V18.667H17.7109Z" fill="#3A186A"/>
</svg>
