<svg width="336" height="104" viewBox="0 0 336 104" fill="none" xmlns="http://www.w3.org/2000/svg">
<g clip-path="url(#clip0_428_2122)">
<path d="M53.7333 0C24.058 0 0 24.1872 0 54.0219C0 76.5985 13.7788 95.9261 33.3332 104L47.0158 80.1792C35.4303 77.1791 26.8632 66.6029 26.8632 54.0219C26.8632 39.1046 38.8888 27.0144 53.7264 27.0144C68.5641 27.0144 80.5897 39.1046 80.5897 54.0219C80.5897 66.6098 72.0295 77.1791 60.4371 80.1792L74.1197 104C93.6809 95.9261 107.453 76.5916 107.453 54.0219C107.46 24.1872 83.4087 0 53.7333 0Z" fill="white"/>
<path d="M207.003 61.8318C207.003 65.3688 205.168 67.2589 202.412 67.2589C199.656 67.2589 197.821 65.3688 197.821 61.8318V42.757H185.244V62.9019C185.244 73.9368 192.625 79.0859 202.412 79.0859C212.199 79.0859 219.581 73.9437 219.581 62.9436V42.764H207.003V61.8387V61.8318ZM167.952 78.1548H180.529V26.705H167.952V78.1548ZM150.474 78.1548H163.052V26.705H150.474V78.1548ZM266.584 41.7911C261.78 41.7911 258.282 43.6117 256.165 47.253C253.973 43.7855 250.268 41.7911 245.78 41.7911C241.292 41.7911 238.289 43.3268 236.309 46.3983L234.234 42.757H224.33V78.1548H236.907V59.1843C236.907 55.2929 238.852 53.6807 241.285 53.6807C244.041 53.6807 245.704 55.5708 245.704 59.1078V78.1478H258.282V59.1773C258.282 55.2859 260.227 53.6738 262.66 53.6738C265.416 53.6738 267.079 55.5639 267.079 59.1009V78.1409H279.656V55.0983C279.656 46.9542 274.674 41.7772 266.584 41.7772V41.7911ZM323.498 41.7911C319.12 41.7911 316.007 43.3268 314.027 46.3983L311.952 42.757H302.048V78.1548H314.625V59.1843C314.625 55.3624 316.495 53.6807 319.003 53.6807C321.759 53.6807 323.423 55.5708 323.423 59.1078V78.1478H336V55.1052C336 46.9611 330.735 41.7842 323.491 41.7842L323.498 41.7911ZM139.21 25.0859C135.148 25.0859 132 28.2616 132 32.3753C132 36.4891 135.141 39.6648 139.21 39.6648C143.278 39.6648 146.419 36.4891 146.419 32.3753C146.419 28.2616 143.278 25.0859 139.21 25.0859ZM132.921 78.1548H145.498V42.757H132.921V78.1548ZM290.852 25.0859C286.79 25.0859 283.643 28.2616 283.643 32.3753C283.643 36.4891 286.783 39.6648 290.852 39.6648C294.921 39.6648 298.062 36.4891 298.062 32.3753C298.062 28.2616 294.921 25.0859 290.852 25.0859ZM284.564 78.1548H297.141V42.757H284.564V78.1548Z" fill="white"/>
</g>
<defs>
<clipPath id="clip0_428_2122">
<rect width="336" height="104" fill="white"/>
</clipPath>
</defs>
</svg>
