<svg width="156" height="48" viewBox="0 0 156 48" fill="none" xmlns="http://www.w3.org/2000/svg">
<g clip-path="url(#clip0_13_1060)">
<path d="M24.8 0C11.1037 0 0 11.1633 0 24.9332C0 35.3531 6.35946 44.2736 15.3846 48L21.6996 37.0058C16.3524 35.6211 12.3984 30.7398 12.3984 24.9332C12.3984 18.0483 17.9487 12.4682 24.7968 12.4682C31.645 12.4682 37.1952 18.0483 37.1952 24.9332C37.1952 30.743 33.2444 35.6211 27.894 37.0058L34.2091 48C43.2374 44.2736 49.5936 35.35 49.5936 24.9332C49.5968 11.1633 38.4963 0 24.8 0Z" fill="black"/>
<path d="M95.5401 28.5377C95.5401 30.1702 94.6931 31.0426 93.4211 31.0426C92.1491 31.0426 91.3022 30.1702 91.3022 28.5377V19.734H85.4972V29.0317C85.4972 34.1247 88.9041 36.5012 93.4211 36.5012C97.9382 36.5012 101.345 34.1279 101.345 29.0509V19.7372H95.5401V28.541V28.5377ZM77.5163 36.0714H83.3212V12.3254H77.5163V36.0714ZM69.4497 36.0714H75.2546V12.3254H69.4497V36.0714ZM123.039 19.2882C120.822 19.2882 119.207 20.1285 118.23 21.8091C117.218 20.2087 115.508 19.2882 113.437 19.2882C111.366 19.2882 109.979 19.997 109.066 21.4146L108.108 19.734H103.537V36.0714H109.342V27.3158C109.342 25.5198 110.24 24.7757 111.362 24.7757C112.634 24.7757 113.402 25.6481 113.402 27.2805V36.0682H119.207V27.3126C119.207 25.5166 120.105 24.7725 121.228 24.7725C122.5 24.7725 123.267 25.6449 123.267 27.2773V36.065H129.072V25.43C129.072 21.6712 126.772 19.2818 123.039 19.2818V19.2882ZM149.307 19.2882C147.286 19.2882 145.849 19.997 144.936 21.4146L143.978 19.734H139.407V36.0714H145.212V27.3158C145.212 25.5519 146.075 24.7757 147.232 24.7757C148.504 24.7757 149.272 25.6481 149.272 27.2805V36.0682H155.077V25.4332C155.077 21.6744 152.647 19.285 149.304 19.285L149.307 19.2882ZM64.2506 11.5781C62.3759 11.5781 60.9231 13.0438 60.9231 14.9425C60.9231 16.8411 62.3727 18.3068 64.2506 18.3068C66.1285 18.3068 67.5781 16.8411 67.5781 14.9425C67.5781 13.0438 66.1285 11.5781 64.2506 11.5781ZM61.3482 36.0714H67.1531V19.734H61.3482V36.0714ZM134.24 11.5781C132.365 11.5781 130.912 13.0438 130.912 14.9425C130.912 16.8411 132.362 18.3068 134.24 18.3068C136.117 18.3068 137.567 16.8411 137.567 14.9425C137.567 13.0438 136.117 11.5781 134.24 11.5781ZM131.337 36.0714H137.142V19.734H131.337V36.0714Z" fill="black"/>
</g>
<defs>
<clipPath id="clip0_13_1060">
<rect width="155.077" height="48" fill="white"/>
</clipPath>
</defs>
</svg>
