<svg width="22" height="21" viewBox="0 0 22 21" fill="none" xmlns="http://www.w3.org/2000/svg">
<path d="M3.85672 15.1105L1.71387 15.6534L3.14244 11.3677V2.79626C3.14244 2.41738 3.29295 2.05402 3.56086 1.78611C3.82877 1.5182 4.19213 1.36769 4.57101 1.36769H15.9996C16.3785 1.36769 16.7418 1.5182 17.0097 1.78611C17.2776 2.05402 17.4282 2.41738 17.4282 2.79626V4.93912" stroke="#3207FF" stroke-width="2" stroke-linecap="round" stroke-linejoin="round"/>
<path d="M15.2849 18.5105L20.2849 19.9391L19.5706 15.6534V9.93912C19.5706 9.56023 19.4201 9.19687 19.1522 8.92896C18.8843 8.66105 18.5209 8.51054 18.142 8.51054H8.85631C8.47743 8.51054 8.11406 8.66105 7.84615 8.92896C7.57824 9.19687 7.42773 9.56023 7.42773 9.93912V17.082C7.42773 17.4609 7.57824 17.8242 7.84615 18.0921C8.11406 18.36 8.47743 18.5105 8.85631 18.5105H15.2849Z" stroke="#3207FF" stroke-width="2" stroke-linecap="round" stroke-linejoin="round"/>
</svg>
