<svg width="64" height="64" viewBox="0 0 64 64" fill="none" xmlns="http://www.w3.org/2000/svg">
<path d="M4.41016 50.2096L33.061 19.5213L47.917 45.2434L7.04179 54.7088L4.41016 50.2096Z" fill="#E5F2FD"/>
<path d="M32.1992 18.0121L48.7862 46.7416" stroke="#5129FF" stroke-width="4.576" stroke-linecap="round" stroke-linejoin="round"/>
<path d="M47.9179 45.2325L7.02906 54.7268L4.41016 50.1906L33.0771 19.5272" stroke="#5129FF" stroke-width="4.576" stroke-linecap="round" stroke-linejoin="round"/>
<path d="M15.9246 52.6594L18.176 56.5589C18.9928 57.9587 20.3323 58.977 21.8997 59.3892C23.4671 59.8017 25.1341 59.5742 26.534 58.7576C27.9339 57.9409 28.952 56.6013 29.3644 55.0338C29.7767 53.4663 29.5495 51.7994 28.7327 50.3996L28.3721 49.7752" stroke="#5129FF" stroke-width="4.576" stroke-linecap="round" stroke-linejoin="round"/>
<path d="M31.9973 10.121V4.41052" stroke="#5129FF" stroke-width="4.576" stroke-linecap="round" stroke-linejoin="round"/>
<path d="M53.8789 32.0023H59.5896" stroke="#5129FF" stroke-width="4.576" stroke-linecap="round" stroke-linejoin="round"/>
<path d="M4.41016 32.0023H10.1207" stroke="#5129FF" stroke-width="4.576" stroke-linecap="round" stroke-linejoin="round"/>
<path d="M12.4863 12.4924L16.5242 16.5303" stroke="#5129FF" stroke-width="4.576" stroke-linecap="round" stroke-linejoin="round"/>
<path d="M47.4714 16.5288L51.5093 12.4909" stroke="#5129FF" stroke-width="4.576" stroke-linecap="round" stroke-linejoin="round"/>
</svg>
