<svg width="64" height="65" viewBox="0 0 64 65" fill="none" xmlns="http://www.w3.org/2000/svg">
<path fill-rule="evenodd" clip-rule="evenodd" d="M6.53223 17.6443V54.0496C6.53223 56.2134 8.28642 57.9677 10.4503 57.9677H53.5489C55.7128 57.9677 57.4671 56.2134 57.4671 54.0496V17.6443H6.53223Z" fill="white"/>
<path fill-rule="evenodd" clip-rule="evenodd" d="M57.4671 17.7224H6.53223V10.951C6.53223 8.78716 8.28642 7.03296 10.4503 7.03296H53.5489C55.7128 7.03296 57.4671 8.78716 57.4671 10.951V17.7224Z" fill="#E5F2FD"/>
<path d="M53.5489 7.03296H10.4503C8.28642 7.03296 6.53223 8.78716 6.53223 10.951V54.0497C6.53223 56.2135 8.28642 57.9678 10.4503 57.9678H53.5489C55.7128 57.9678 57.4671 56.2135 57.4671 54.0497V10.951C57.4671 8.78716 55.7128 7.03296 53.5489 7.03296Z" stroke="#5129FF" stroke-width="4.576" stroke-linecap="round" stroke-linejoin="round"/>
<path d="M6.53223 17.6443H57.4675" stroke="#5129FF" stroke-width="4.576" stroke-linecap="round" stroke-linejoin="round"/>
<path d="M32.9372 26.114L36.0929 32.4619C36.1634 32.6225 36.2753 32.7614 36.4172 32.8646C36.559 32.9677 36.7256 33.0313 36.9001 33.049L43.9086 34.1131C44.1089 34.1392 44.2977 34.2218 44.4529 34.3512C44.608 34.4806 44.7231 34.6516 44.7847 34.844C44.8463 35.0365 44.8518 35.2425 44.8004 35.4379C44.7495 35.6334 44.6436 35.8102 44.4956 35.9478L39.3219 40.8647C39.2448 41.0119 39.2044 41.1756 39.2044 41.3417C39.2044 41.5079 39.2448 41.6715 39.3219 41.8187L40.3126 48.7906C40.3549 48.9918 40.3378 49.2015 40.2634 49.3933C40.189 49.5856 40.0605 49.7516 39.8935 49.8721C39.7264 49.9926 39.5281 50.0618 39.3224 50.0716C39.1167 50.0818 38.9126 50.0317 38.7348 49.9281L32.4969 46.6254C32.3355 46.5524 32.1604 46.5151 31.9832 46.5151C31.8061 46.5151 31.6309 46.5524 31.4695 46.6254L25.2316 49.9281C25.0538 50.0317 24.8497 50.0818 24.644 50.0716C24.4383 50.0618 24.24 49.9926 24.073 49.8721C23.9059 49.7516 23.7775 49.5856 23.703 49.3933C23.6286 49.2015 23.6115 48.9918 23.6538 48.7906L24.828 41.8187C24.8785 41.6569 24.8882 41.4851 24.8562 41.3187C24.8241 41.1522 24.7515 40.9962 24.6445 40.8647L19.4707 35.9111C19.3335 35.7721 19.2372 35.5979 19.1923 35.4078C19.1475 35.2177 19.1559 35.0189 19.2165 34.8332C19.2771 34.6475 19.3877 34.4821 19.5361 34.3551C19.6845 34.2281 19.865 34.1444 20.0579 34.1131L27.0663 33.0857C27.2408 33.0681 27.4075 33.0044 27.5493 32.9012C27.6911 32.7981 27.803 32.6592 27.8736 32.4986L31.0292 26.1506C31.1136 25.971 31.2467 25.8185 31.4132 25.7104C31.5798 25.6024 31.7733 25.5431 31.9718 25.5393C32.1703 25.5355 32.3659 25.5873 32.5366 25.6888C32.7071 25.7904 32.8459 25.9376 32.9372 26.114Z" fill="#E5F2FD"/>
<path d="M32.9372 26.114L36.0929 32.4619C36.1634 32.6225 36.2753 32.7614 36.4172 32.8646C36.559 32.9677 36.7256 33.0313 36.9001 33.049L43.9086 34.1131C44.1089 34.1392 44.2977 34.2218 44.4529 34.3512C44.608 34.4806 44.7231 34.6516 44.7847 34.844C44.8463 35.0365 44.8518 35.2425 44.8004 35.4379C44.7495 35.6334 44.6436 35.8102 44.4956 35.9478L39.3219 40.8647C39.2448 41.0119 39.2044 41.1756 39.2044 41.3417C39.2044 41.5079 39.2448 41.6715 39.3219 41.8187L40.3126 48.7906C40.3549 48.9918 40.3378 49.2015 40.2634 49.3933C40.189 49.5856 40.0605 49.7516 39.8935 49.8721C39.7264 49.9926 39.5281 50.0618 39.3224 50.0716C39.1167 50.0818 38.9126 50.0317 38.7348 49.9281L32.4969 46.6254C32.3355 46.5524 32.1604 46.5151 31.9832 46.5151C31.8061 46.5151 31.6309 46.5524 31.4695 46.6254L25.2316 49.9281C25.0538 50.0317 24.8497 50.0818 24.644 50.0716C24.4383 50.0618 24.24 49.9926 24.073 49.8721C23.9059 49.7516 23.7775 49.5856 23.703 49.3933C23.6286 49.2015 23.6115 48.9918 23.6538 48.7906L24.828 41.8187C24.8785 41.6569 24.8882 41.4851 24.8562 41.3187C24.8241 41.1522 24.7515 40.9962 24.6445 40.8647L19.4707 35.9111C19.3335 35.7721 19.2372 35.5979 19.1923 35.4078C19.1475 35.2177 19.1559 35.0189 19.2165 34.8332C19.2771 34.6475 19.3877 34.4821 19.5361 34.3551C19.6845 34.2281 19.865 34.1444 20.0579 34.1131L27.0663 33.0857C27.2408 33.0681 27.4075 33.0044 27.5493 32.9012C27.6911 32.7981 27.803 32.6592 27.8736 32.4986L31.0292 26.1506C31.1136 25.971 31.2467 25.8185 31.4132 25.7104C31.5798 25.6024 31.7733 25.5431 31.9718 25.5393C32.1703 25.5355 32.3659 25.5873 32.5366 25.6888C32.7071 25.7904 32.8459 25.9376 32.9372 26.114Z" stroke="#5129FF" stroke-width="4.576" stroke-linecap="round" stroke-linejoin="round"/>
</svg>
