<svg width="41" height="40" viewBox="0 0 41 40" fill="none" xmlns="http://www.w3.org/2000/svg">
<g clip-path="url(#clip0_782_4712)">
<path d="M18.3182 2.79822H14.4322C11.7255 2.79822 9.53125 4.99246 9.53125 7.6992V14.2222" stroke="black" stroke-width="2.85714" stroke-linecap="round" stroke-linejoin="round"/>
<path d="M26.123 37.0622H30.0089C32.7158 37.0622 34.91 34.8679 34.91 32.1611V25.6381" stroke="black" stroke-width="2.85714" stroke-linecap="round" stroke-linejoin="round"/>
<path d="M5.80469 24.861C5.80469 27.6409 8.0582 29.8945 10.8381 29.8945C11.5408 29.8945 12.2099 29.7502 12.8175 29.4902C14.6133 28.7214 15.8714 26.9381 15.8714 24.861C15.8714 22.0812 13.6179 19.8276 10.8381 19.8276C8.0582 19.8276 5.80469 22.0812 5.80469 24.861Z" stroke="black" stroke-width="2.85714" stroke-linecap="round" stroke-linejoin="round"/>
<path d="M24.9062 6.46245C24.9062 9.24231 27.1598 11.4958 29.9395 11.4958C30.6424 11.4958 31.3115 11.3518 31.9189 11.0916C33.7149 10.3228 34.9729 8.53953 34.9729 6.46245C34.9729 3.68259 32.7195 1.42908 29.9395 1.42908C27.1598 1.42908 24.9062 3.68259 24.9062 6.46245Z" stroke="black" stroke-width="2.85714" stroke-linecap="round" stroke-linejoin="round"/>
<path d="M19.4318 38.5719C19.0537 34.0968 15.3016 30.5825 10.7286 30.5825C6.15565 30.5825 2.40349 34.0968 2.02539 38.5719" stroke="black" stroke-width="2.85714" stroke-linecap="round" stroke-linejoin="round"/>
<path d="M38.6428 19.8278C38.2645 15.3526 34.5125 11.8384 29.9397 11.8384C25.3666 11.8384 21.6144 15.3526 21.2363 19.8278" stroke="black" stroke-width="2.85714" stroke-linecap="round" stroke-linejoin="round"/>
<path d="M13.2948 11.4958L9.54974 14.2125L5.80469 11.4958" stroke="black" stroke-width="2.85714" stroke-linecap="round" stroke-linejoin="round"/>
<path d="M31.1465 28.3644L34.8916 25.6477L38.6368 28.3644" stroke="black" stroke-width="2.85714" stroke-linecap="round" stroke-linejoin="round"/>
</g>
<defs>
<clipPath id="clip0_782_4712">
<rect width="40" height="40" fill="white" transform="translate(0.333984 0.000488281)"/>
</clipPath>
</defs>
</svg>
