<svg width="40" height="40" viewBox="0 0 40 40" fill="none" xmlns="http://www.w3.org/2000/svg">
<path d="M38.5716 12.8574V31.4288C38.5716 32.376 38.1953 33.2844 37.5255 33.9542C36.8557 34.624 35.9473 35.0002 35.0001 35.0002M35.0001 35.0002C34.0529 35.0002 33.1445 34.624 32.4748 33.9542C31.805 33.2844 31.4287 32.376 31.4287 31.4288V6.42882C31.4287 6.04993 31.2782 5.68657 31.0103 5.41866C30.7424 5.15075 30.379 5.00024 30.0001 5.00024H2.85728C2.4784 5.00024 2.11504 5.15075 1.84713 5.41866C1.57922 5.68657 1.42871 6.04993 1.42871 6.42882V32.1431C1.42871 32.9009 1.72973 33.6276 2.26555 34.1634C2.80137 34.6992 3.52809 35.0002 4.28585 35.0002H35.0001Z" stroke="black" stroke-width="2.85714" stroke-linecap="round" stroke-linejoin="round"/>
<path d="M22.8571 12.1431H10V19.286H22.8571V12.1431Z" stroke="black" stroke-width="2.85714" stroke-linecap="round" stroke-linejoin="round"/>
<path d="M10 27.8574H22.8571" stroke="black" stroke-width="2.85714" stroke-linecap="round" stroke-linejoin="round"/>
</svg>
