<svg width="40" height="40" viewBox="0 0 40 40" fill="none" xmlns="http://www.w3.org/2000/svg">
<path d="M12.8574 25.886L34.8003 33.2002C35.23 33.3419 35.6871 33.3795 36.1342 33.31C36.5812 33.2405 37.0054 33.0657 37.3717 32.8002C37.741 32.5373 38.0424 32.1904 38.251 31.7879C38.4597 31.3855 38.5696 30.9392 38.5717 30.486V6.97167C38.5696 6.51839 38.4597 6.0721 38.251 5.66969C38.0424 5.26728 37.741 4.92029 37.3717 4.65739C37.003 4.39665 36.5776 4.22705 36.1307 4.16248C35.6837 4.09792 35.2277 4.14023 34.8003 4.28596L12.8574 11.6002V25.886Z" stroke="black" stroke-width="2.85714" stroke-linecap="round" stroke-linejoin="round"/>
<path d="M1.42871 18.7431C1.42871 19.6811 1.61347 20.6099 1.97243 21.4766C2.33139 22.3432 2.85753 23.1306 3.52081 23.7939C4.86035 25.1334 6.67716 25.886 8.57157 25.886H12.8573V11.6002H8.57157C7.63355 11.6002 6.70473 11.785 5.83811 12.144C4.9715 12.5029 4.18408 13.0291 3.52081 13.6923C2.18126 15.0319 1.42871 16.8487 1.42871 18.7431Z" stroke="black" stroke-width="2.85714" stroke-linecap="round" stroke-linejoin="round"/>
<path d="M8.57129 25.886V28.7431C8.57129 29.6811 8.75604 30.6099 9.11501 31.4766C9.47397 32.3432 10.0001 33.1306 10.6634 33.7939C11.3267 34.4571 12.1141 34.9833 12.9807 35.3422C13.8473 35.7012 14.7761 35.886 15.7141 35.886" stroke="black" stroke-width="2.85714" stroke-linecap="round" stroke-linejoin="round"/>
</svg>
