<svg width="41" height="40" viewBox="0 0 41 40" fill="none" xmlns="http://www.w3.org/2000/svg">
<g clip-path="url(#clip0_782_4729)">
<path d="M39.18 21.5148C38.898 25.0591 37.6044 28.4479 35.4531 31.2787C33.3017 34.1095 30.383 36.2632 27.0436 37.484C23.7043 38.7048 20.0847 38.9413 16.6148 38.1655C13.145 37.3897 9.97079 35.6341 7.46933 33.1074C4.96787 30.5806 3.2443 27.389 2.5034 23.9115C1.76249 20.4341 2.03539 16.817 3.28967 13.4901C4.54395 10.1632 6.7269 7.26621 9.57915 5.14341C12.4314 3.02061 15.8331 1.76119 19.38 1.51477" stroke="black" stroke-width="2.85714" stroke-linecap="round" stroke-linejoin="round"/>
<path d="M28.6372 23.1148C28.1213 24.4428 27.2824 25.6212 26.1966 26.5435C25.1107 27.4658 23.8121 28.1029 22.4181 28.3972C21.0241 28.6915 19.5788 28.6337 18.2128 28.229C16.8468 27.8243 15.6032 27.0855 14.5945 26.0794C13.5858 25.0732 12.8438 23.8316 12.4356 22.4666C12.0273 21.1016 11.9658 19.6565 12.2565 18.2617C12.5472 16.867 13.181 15.5667 14.1005 14.4785C15.02 13.3903 16.1963 12.5484 17.5229 12.0291" stroke="black" stroke-width="2.85714" stroke-linecap="round" stroke-linejoin="round"/>
<path d="M20.666 20.0005L27.8089 12.8577" stroke="black" stroke-width="2.85714" stroke-linecap="round" stroke-linejoin="round"/>
<path d="M33.5237 14.2862L27.8094 12.8576L26.3809 7.14336L32.0951 1.42908L33.5237 7.14336L39.238 8.57193L33.5237 14.2862Z" stroke="black" stroke-width="2.85714" stroke-linecap="round" stroke-linejoin="round"/>
</g>
<defs>
<clipPath id="clip0_782_4729">
<rect width="40" height="40" fill="white" transform="translate(0.666016 0.000488281)"/>
</clipPath>
</defs>
</svg>
