<svg width="40" height="40" viewBox="0 0 40 40" fill="none" xmlns="http://www.w3.org/2000/svg">
<path d="M19.9986 11.4291C22.3655 11.4291 24.2843 9.51031 24.2843 7.14338C24.2843 4.77645 22.3655 2.85767 19.9986 2.85767C17.6317 2.85767 15.7129 4.77645 15.7129 7.14338C15.7129 9.51031 17.6317 11.4291 19.9986 11.4291Z" stroke="black" stroke-width="2.85714" stroke-linecap="round" stroke-linejoin="round"/>
<path d="M5.71345 37.1433C8.08038 37.1433 9.99916 35.2245 9.99916 32.8576C9.99916 30.4907 8.08038 28.5719 5.71345 28.5719C3.34651 28.5719 1.42773 30.4907 1.42773 32.8576C1.42773 35.2245 3.34651 37.1433 5.71345 37.1433Z" stroke="black" stroke-width="2.85714" stroke-linecap="round" stroke-linejoin="round"/>
<path d="M19.9986 37.1433C22.3655 37.1433 24.2843 35.2245 24.2843 32.8576C24.2843 30.4907 22.3655 28.5719 19.9986 28.5719C17.6317 28.5719 15.7129 30.4907 15.7129 32.8576C15.7129 35.2245 17.6317 37.1433 19.9986 37.1433Z" stroke="black" stroke-width="2.85714" stroke-linecap="round" stroke-linejoin="round"/>
<path d="M34.2857 37.1433C36.6526 37.1433 38.5714 35.2245 38.5714 32.8576C38.5714 30.4907 36.6526 28.5719 34.2857 28.5719C31.9188 28.5719 30 30.4907 30 32.8576C30 35.2245 31.9188 37.1433 34.2857 37.1433Z" stroke="black" stroke-width="2.85714" stroke-linecap="round" stroke-linejoin="round"/>
<path d="M5.71289 28.5719V22.8576C5.71289 22.0999 6.01391 21.3731 6.54973 20.8373C7.08555 20.3015 7.81227 20.0005 8.57003 20.0005H31.4272C32.1849 20.0005 32.9117 20.3015 33.4475 20.8373C33.9833 21.3731 34.2843 22.0999 34.2843 22.8576V28.5719" stroke="black" stroke-width="2.85714" stroke-linecap="round" stroke-linejoin="round"/>
<path d="M20 11.4291V28.5719" stroke="black" stroke-width="2.85714" stroke-linecap="round" stroke-linejoin="round"/>
</svg>
