<svg width="40" height="40" viewBox="0 0 40 40" fill="none" xmlns="http://www.w3.org/2000/svg">
<g clip-path="url(#clip0_457_3055)">
<path d="M20 33.2666H38.5714" stroke="black" stroke-width="2.85714" stroke-linecap="round" stroke-linejoin="round"/>
<path d="M33.2656 27.9595L38.5716 33.2656L33.2656 38.5716" stroke="black" stroke-width="2.85714" stroke-linecap="round" stroke-linejoin="round"/>
<path d="M13.3687 9.38896C15.5668 9.38896 17.3487 7.60705 17.3487 5.40896C17.3487 3.21086 15.5668 1.42896 13.3687 1.42896C11.1706 1.42896 9.38867 3.21086 9.38867 5.40896C9.38867 7.60705 11.1706 9.38896 13.3687 9.38896Z" stroke="black" stroke-width="2.85714" stroke-linejoin="round"/>
<path d="M23.98 22.6548C26.1781 22.6548 27.96 20.8729 27.96 18.6748C27.96 16.4767 26.1781 14.6948 23.98 14.6948C21.7819 14.6948 20 16.4767 20 18.6748C20 20.8729 21.7819 22.6548 23.98 22.6548Z" stroke="black" stroke-width="2.85714" stroke-linejoin="round"/>
<path d="M16.0191 37.2461C18.2172 37.2461 19.9991 35.4642 19.9991 33.2661C19.9991 31.068 18.2172 29.2861 16.0191 29.2861C13.821 29.2861 12.0391 31.068 12.0391 33.2661C12.0391 35.4642 13.821 37.2461 16.0191 37.2461Z" stroke="black" stroke-width="2.85714" stroke-linejoin="round"/>
<path d="M19.9993 18.675H8.72368C4.69425 18.675 1.42773 21.9416 1.42773 25.971C1.42773 30.0004 4.69425 33.267 8.72368 33.267H12.04" stroke="black" stroke-width="2.85714" stroke-linecap="round" stroke-linejoin="round"/>
<path d="M27.9599 18.6745H31.9396C35.6027 18.6745 38.5721 15.705 38.5721 12.0418C38.5721 8.37872 35.6027 5.40918 31.9396 5.40918H17.3477" stroke="black" stroke-width="2.85714" stroke-linecap="round" stroke-linejoin="round"/>
<path d="M9.38694 5.40918H1.42773" stroke="black" stroke-width="2.85714" stroke-linecap="round" stroke-linejoin="round"/>
</g>
<defs>
<clipPath id="clip0_457_3055">
<rect width="40" height="40" fill="white" transform="translate(0 0.000488281)"/>
</clipPath>
</defs>
</svg>
