<svg width="212" height="307" viewBox="0 0 212 307" fill="none" xmlns="http://www.w3.org/2000/svg">
<path d="M1.18813 171.011C1.18813 174.802 4.26108 177.875 8.05176 177.875C11.8424 177.875 14.9154 174.802 14.9154 171.011C14.9154 167.22 11.8424 164.147 8.05176 164.147C4.26108 164.147 1.18813 167.22 1.18813 171.011ZM143.608 8L130.739 0.56991V15.4301L143.608 8ZM8.05176 172.298H53.8271V169.724H8.05176V172.298ZM75.7049 150.42V28.5908H73.1311V150.42H75.7049ZM95.0089 9.28693H132.026V6.71307H95.0089V9.28693ZM75.7049 28.5908C75.7049 17.9296 84.3476 9.28693 95.0089 9.28693V6.71307C82.9261 6.71307 73.1311 16.5081 73.1311 28.5908H75.7049ZM53.8271 172.298C65.9099 172.298 75.7049 162.503 75.7049 150.42H73.1311C73.1311 161.081 64.4884 169.724 53.8271 169.724V172.298Z" fill="black"/>
<path d="M1.18813 171.011C1.18813 167.22 4.26108 164.147 8.05176 164.147C11.8424 164.147 14.9154 167.22 14.9154 171.011C14.9154 174.802 11.8424 177.875 8.05176 177.875C4.26108 177.875 1.18813 174.802 1.18813 171.011ZM108.432 306.568L101.002 293.698H115.862L108.432 306.568ZM8.05176 169.724H87.8414V172.298H8.05176V169.724ZM109.719 191.602V294.985H107.145V191.602H109.719ZM87.8414 169.724C99.9241 169.724 109.719 179.519 109.719 191.602H107.145C107.145 180.941 98.5026 172.298 87.8414 172.298V169.724Z" fill="black"/>
<path d="M0.860498 171.375C0.860498 175.166 3.93345 178.239 7.72412 178.239C11.5148 178.239 14.5877 175.166 14.5877 171.375C14.5877 167.584 11.5148 164.511 7.72412 164.511C3.93345 164.511 0.860498 167.584 0.860498 171.375ZM211.281 171.375L198.412 163.945L198.412 178.805L211.281 171.375ZM7.72412 172.662L109.503 172.662L109.503 170.088L7.72412 170.088L7.72412 172.662ZM109.503 172.662L199.699 172.662L199.699 170.088L109.503 170.088L109.503 172.662Z" fill="black"/>
</svg>
