<svg width="64" height="65" viewBox="0 0 64 65" fill="none" xmlns="http://www.w3.org/2000/svg">
<path d="M31.9988 60.0898C47.2364 60.0898 59.5885 47.7376 59.5885 32.5001C59.5885 17.2627 47.2364 4.91034 31.9988 4.91034C16.7614 4.91034 4.40906 17.2627 4.40906 32.5001C4.40906 38.1564 6.11122 43.4152 9.03123 47.792L4.40906 60.0898L19.8793 57.2922C23.5376 59.0838 27.6507 60.0898 31.9988 60.0898Z" fill="#E5F2FD"/>
<path d="M19.8793 57.2922C23.5376 59.0838 27.6507 60.0898 31.9988 60.0898C47.2364 60.0898 59.5885 47.7376 59.5885 32.5001C59.5885 17.2627 47.2364 4.91034 31.9988 4.91034C16.7614 4.91034 4.40906 17.2627 4.40906 32.5001C4.40906 38.1564 6.11122 43.4152 9.03123 47.792M19.8793 57.2922L4.40906 60.0898L9.03123 47.792M19.8793 57.2922L19.9017 57.2884M9.03123 47.792L9.03564 47.7805" stroke="#5129FF" stroke-width="4.576" stroke-linecap="round" stroke-linejoin="round"/>
<path d="M34.789 45.1589C33.2195 46.6736 30.7887 46.6736 29.2192 45.1589L19.8587 36.1243C13.5966 30.0237 21.7737 16.5454 32.0041 26.5118C42.2165 16.5629 50.3934 30.0415 44.1495 36.1243L34.789 45.1589Z" fill="white"/>
<path d="M34.789 45.1589C33.2195 46.6736 30.7887 46.6736 29.2192 45.1589L19.8587 36.1243C13.5966 30.0237 21.7737 16.5454 32.0041 26.5118C42.2165 16.5629 50.3934 30.0415 44.1495 36.1243L34.789 45.1589Z" stroke="#5129FF" stroke-width="4.576" stroke-linecap="round" stroke-linejoin="round"/>
</svg>
