<svg width="783" height="220" viewBox="0 0 783 220" fill="none" xmlns="http://www.w3.org/2000/svg">
<path d="M0 0H767V52C767 60.8366 759.837 68 751 68H0V0Z" fill="white"/>
<path d="M767 16V0H783C774.163 0 767 7.16344 767 16Z" fill="white"/>
<path d="M0 68H522V120C522 128.837 514.837 136 506 136H0V68Z" fill="white"/>
<path d="M522 84V68H538C529.163 68 522 75.1634 522 84Z" fill="white"/>
<path d="M0 136H443V188C443 196.837 435.837 204 427 204H0V136Z" fill="white"/>
<path d="M443 152V136H459C450.163 136 443 143.163 443 152Z" fill="white"/>
<path d="M0 220V204H16C7.16344 204 0 211.163 0 220Z" fill="white"/>
</svg>
