<svg width="64" height="65" viewBox="0 0 64 65" fill="none" xmlns="http://www.w3.org/2000/svg">
<path d="M53.5499 7.03247H10.4513C8.2874 7.03247 6.5332 8.78667 6.5332 10.9505V54.0492C6.5332 56.213 8.2874 57.9673 10.4513 57.9673H53.5499C55.7138 57.9673 57.4681 56.213 57.4681 54.0492V10.9505C57.4681 8.78667 55.7138 7.03247 53.5499 7.03247Z" fill="#E5F2FD"/>
<path fill-rule="evenodd" clip-rule="evenodd" d="M10.4513 7.03247H53.5507C55.7146 7.03247 57.4689 8.66137 57.4689 10.6707V19.7662H6.5332V10.6707C6.5332 8.66137 8.2874 7.03247 10.4513 7.03247Z" fill="white"/>
<path d="M53.5499 7.03247H10.4513C8.2874 7.03247 6.5332 8.78667 6.5332 10.9505V54.0492C6.5332 56.213 8.2874 57.9673 10.4513 57.9673H53.5499C55.7138 57.9673 57.4681 56.213 57.4681 54.0492V10.9505C57.4681 8.78667 55.7138 7.03247 53.5499 7.03247Z" stroke="#5129FF" stroke-width="4.576" stroke-linecap="round" stroke-linejoin="round"/>
<path d="M25.5909 46.9849V30.7284C25.6028 30.4785 25.6758 30.2354 25.8036 30.0204C25.9313 29.8054 26.1098 29.625 26.3236 29.4951C26.5373 29.3652 26.7796 29.2897 27.0293 29.2753C27.2791 29.2609 27.5285 29.308 27.7557 29.4125L41.8476 37.5197C42.0759 37.6603 42.2643 37.857 42.395 38.091C42.5257 38.325 42.5943 38.5887 42.5943 38.8567C42.5943 39.1248 42.5257 39.3883 42.395 39.6224C42.2643 39.8564 42.0759 40.0531 41.8476 40.1938L27.7557 48.3431C27.5245 48.4382 27.274 48.4768 27.025 48.4556C26.7759 48.4344 26.5356 48.3537 26.3239 48.2209C26.1122 48.088 25.9353 47.9068 25.8078 47.692C25.6803 47.4768 25.606 47.2344 25.5909 46.9849Z" fill="white"/>
<path d="M25.5909 46.9849V30.7284C25.6028 30.4785 25.6758 30.2354 25.8036 30.0204C25.9313 29.8054 26.1098 29.625 26.3236 29.4951C26.5373 29.3652 26.7796 29.2897 27.0293 29.2753C27.2791 29.2609 27.5285 29.308 27.7557 29.4125L41.8476 37.5197C42.0759 37.6603 42.2643 37.857 42.395 38.091C42.5257 38.325 42.5943 38.5887 42.5943 38.8567C42.5943 39.1248 42.5257 39.3883 42.395 39.6224C42.2643 39.8564 42.0759 40.0531 41.8476 40.1938L27.7557 48.3431C27.5245 48.4382 27.274 48.4768 27.025 48.4556C26.7759 48.4344 26.5356 48.3537 26.3239 48.2209C26.1122 48.088 25.9353 47.9068 25.8078 47.692C25.6803 47.4768 25.606 47.2344 25.5909 46.9849Z" stroke="#5129FF" stroke-width="4.576" stroke-linecap="round" stroke-linejoin="round"/>
<path d="M6.5332 19.7666H57.4681" stroke="#5129FF" stroke-width="4.576" stroke-linecap="round" stroke-linejoin="round"/>
<path d="M19.2646 19.7662L25.6315 7.03247" stroke="#5129FF" stroke-width="4.576" stroke-linecap="round" stroke-linejoin="round"/>
<path d="M38.3662 19.7662L44.7331 7.03247" stroke="#5129FF" stroke-width="4.576" stroke-linecap="round" stroke-linejoin="round"/>
</svg>
