<svg width="22" height="16" viewBox="0 0 22 16" fill="none" xmlns="http://www.w3.org/2000/svg">
<path d="M21.1953 3.0498C21.6641 4.69043 21.6641 8.20605 21.6641 8.20605C21.6641 8.20605 21.6641 11.6826 21.1953 13.3623C20.9609 14.2998 20.2188 15.0029 19.3203 15.2373C17.6406 15.667 11 15.667 11 15.667C11 15.667 4.32031 15.667 2.64062 15.2373C1.74219 15.0029 1 14.2998 0.765625 13.3623C0.296875 11.6826 0.296875 8.20605 0.296875 8.20605C0.296875 8.20605 0.296875 4.69043 0.765625 3.0498C1 2.1123 1.74219 1.37012 2.64062 1.13574C4.32031 0.666992 11 0.666992 11 0.666992C11 0.666992 17.6406 0.666992 19.3203 1.13574C20.2188 1.37012 20.9609 2.1123 21.1953 3.0498ZM8.8125 11.3701L14.3594 8.20605L8.8125 5.04199V11.3701Z" fill="#3A186A"/>
</svg>
